# xmcd
#
# Track frame offsets: 
#        150
#        21151
#        47504
#        73816
#        90318
#        110565
#        115511
#        138918
#        155119
#        167468
#
# Disc length: 2407 seconds
#
# Revision: 0
# Processed by: cddbd v1.5.2PL0 Copyright (c) Steve Scherf et al.
# Submitted via: ExactAudioCopy v1.1
#
DISCID=7909650a
DTITLE=James Luther Dickinson - I'm Just Dead, I'm Not Gone - Lazarus 
DTITLE=Edition
DYEAR=2017
DGENRE=Blues
TTITLE0=Redneck, Blue Collar
TTITLE1=Lazarus
TTITLE2=All Out Of Blue
TTITLE3=Hadacol Boogie
TTITLE4=Fraulein
TTITLE5=Band Intro
TTITLE6=Somewhere Down The Road
TTITLE7=Midnight Rider
TTITLE8=Ubangi Stomp
TTITLE9=I Forgot To Remember To Forget
EXTD=
EXTT0=
EXTT1=
EXTT2=
EXTT3=
EXTT4=
EXTT5=
EXTT6=
EXTT7=
EXTT8=
EXTT9=
PLAYORDER=
